<svg xmlns="http://www.w3.org/2000/svg" viewBox="0 0 186.24 142.86"><defs><style>.cls-1{fill:#ededed;opacity:0.27;}.cls-2{fill:none;stroke:#fefbf6;stroke-linecap:round;stroke-miterlimit:10;stroke-width:6px;}.cls-3{fill:#fefbf6;}</style></defs><title>broom</title><g id="Layer_2" data-name="Layer 2"><g id="Layer_1-2" data-name="Layer 1"><path class="cls-1" d="M170.67,123.69a40.47,40.47,0,0,1-4.79,19.17H94.13A40.66,40.66,0,0,1,130,83a41.19,41.19,0,0,1,7.5.69A40.67,40.67,0,0,1,164.39,102c.14.21.27.43.4.65A40.44,40.44,0,0,1,170.67,123.69Z"/><path class="cls-1" d="M186.24,127.48A25,25,0,0,1,181,142.86H141.27a25.12,25.12,0,0,1,19.85-40.5,24.13,24.13,0,0,1,3,.18c.24,0,.47,0,.71.09A25.12,25.12,0,0,1,186.24,127.48Z"/><circle class="cls-1" cx="39.85" cy="85.24" r="18.73"/><path class="cls-1" d="M65,129.86a32.39,32.39,0,0,1-2.71,13H2.71A32.47,32.47,0,0,1,32.49,97.38a33.21,33.21,0,0,1,6.66.68A32.49,32.49,0,0,1,65,129.86Z"/><circle class="cls-1" cx="149.79" cy="94.55" r="16.38"/><path class="cls-1" d="M119.28,112.74a41.26,41.26,0,0,1-13,30.12H49.47a41.43,41.43,0,0,1-12-39.05,39.7,39.7,0,0,1,1.71-5.75,41.41,41.41,0,0,1,80.13,14.68Z"/><g id="Layer_2-2" data-name="Layer 2"><g id="Layer_1-2-2" data-name="Layer 1-2"><path class="cls-2" d="M65,3S93.16,26.36,93.16,89.36"/><path class="cls-3" d="M109.74,96.36a11.06,11.06,0,0,0-10.58-8h-11a11,11,0,0,0-10.57,8Z"/><path class="cls-3" d="M77.59,102.36a11,11,0,0,0,10.57,8h11a11.06,11.06,0,0,0,10.58-8Z"/><path class="cls-3" d="M77.55,116.86a67.64,67.64,0,0,1-9.14,26h32.73a67.46,67.46,0,0,0,9.13-26Z"/><path class="cls-3" d="M77.83,114.11h32.72a56.3,56.3,0,0,0-.25-11.75H77.58A57,57,0,0,1,77.83,114.11Z"/></g></g><circle class="cls-1" cx="26.21" cy="66.51" r="10.26"/><circle class="cls-1" cx="132.27" cy="69.43" r="3.74"/></g></g></svg>