<?xml version="1.0" encoding="UTF-8" standalone="no"?>
<!-- Created with Inkscape (http://www.inkscape.org/) -->

<svg
   xmlns:dc="http://purl.org/dc/elements/1.1/"
   xmlns:cc="http://creativecommons.org/ns#"
   xmlns:rdf="http://www.w3.org/1999/02/22-rdf-syntax-ns#"
   xmlns:svg="http://www.w3.org/2000/svg"
   xmlns="http://www.w3.org/2000/svg"
   xmlns:sodipodi="http://sodipodi.sourceforge.net/DTD/sodipodi-0.dtd"
   xmlns:inkscape="http://www.inkscape.org/namespaces/inkscape"
   width="120"
   height="120"
   id="svg2"
   version="1.1"
   inkscape:version="0.48.4 r"
   sodipodi:docname="raspberry.svg">
  <defs
     id="defs4">
    <inkscape:path-effect
       effect="spiro"
       id="path-effect3963"
       is_visible="true" />
    <inkscape:path-effect
       is_visible="true"
       id="path-effect3959"
       effect="spiro" />
    <inkscape:path-effect
       effect="spiro"
       id="path-effect3956"
       is_visible="true" />
    <inkscape:path-effect
       is_visible="true"
       id="path-effect3943"
       effect="spiro" />
    <inkscape:path-effect
       effect="spiro"
       id="path-effect3939"
       is_visible="true" />
    <inkscape:path-effect
       effect="spiro"
       id="path-effect2997"
       is_visible="true" />
  </defs>
  <sodipodi:namedview
     id="base"
     pagecolor="#ffffff"
     bordercolor="#666666"
     borderopacity="1.0"
     inkscape:pageopacity="0.0"
     inkscape:pageshadow="2"
     inkscape:zoom="4.4583333"
     inkscape:cx="58.205607"
     inkscape:cy="86.915888"
     inkscape:document-units="px"
     inkscape:current-layer="layer1"
     showgrid="false"
     inkscape:showpageshadow="false"
     borderlayer="true"
     inkscape:window-width="1366"
     inkscape:window-height="715"
     inkscape:window-x="-8"
     inkscape:window-y="-8"
     inkscape:window-maximized="1" />
  <metadata
     id="metadata7">
    <rdf:RDF>
      <cc:Work
         rdf:about="">
        <dc:format>image/svg+xml</dc:format>
        <dc:type
           rdf:resource="http://purl.org/dc/dcmitype/StillImage" />
        <dc:title></dc:title>
      </cc:Work>
    </rdf:RDF>
  </metadata>
  <g
     inkscape:label="Layer 1"
     inkscape:groupmode="layer"
     id="layer1"
     transform="translate(0,-932.36218)">
    <g
       id="g3005"
       style="fill:#e82d28;fill-opacity:0.9955157"
       transform="matrix(1.3061223,0,0,1.3061223,-25.597659,-306.95624)">
      <path
         transform="translate(7.5,934.50504)"
         d="m 57.857142,56.964287 c 0,7.988404 -6.475881,14.464286 -14.464285,14.464286 -7.988405,0 -14.464286,-6.475882 -14.464286,-14.464286 0,-7.988405 6.475881,-14.464286 14.464286,-14.464286 7.988404,0 14.464285,6.475881 14.464285,14.464286 z"
         sodipodi:ry="14.464286"
         sodipodi:rx="14.464286"
         sodipodi:cy="56.964287"
         sodipodi:cx="43.392857"
         id="path2999"
         style="fill:#e82d28;fill-opacity:0.9955157;fill-rule:evenodd;stroke:none"
         sodipodi:type="arc" />
      <path
         transform="translate(4.2857143,934.14789)"
         d="m 81.785718,44.82143 c 0,8.777383 -7.115475,15.892858 -15.892858,15.892858 -8.777382,0 -15.892857,-7.115475 -15.892857,-15.892858 0,-8.777383 7.115475,-15.892857 15.892857,-15.892857 8.777383,0 15.892858,7.115474 15.892858,15.892857 z"
         sodipodi:ry="15.892858"
         sodipodi:rx="15.892858"
         sodipodi:cy="44.82143"
         sodipodi:cx="65.89286"
         id="path3001"
         style="fill:#e82d28;fill-opacity:0.9955157;fill-rule:evenodd;stroke:none"
         sodipodi:type="arc" />
      <path
         transform="translate(1.4285714,926.6479)"
         d="m 62.857143,42.142857 c 0,6.903559 -5.59644,12.5 -12.5,12.5 -6.903559,0 -12.5,-5.596441 -12.5,-12.5 0,-6.90356 5.596441,-12.5 12.5,-12.5 6.90356,0 12.5,5.59644 12.5,12.5 z"
         sodipodi:ry="12.5"
         sodipodi:rx="12.5"
         sodipodi:cy="42.142857"
         sodipodi:cx="50.357143"
         id="path3003"
         style="fill:#e82d28;fill-opacity:0.9955157;fill-rule:evenodd;stroke:none"
         sodipodi:type="arc" />
    </g>
    <g
       id="g3786"
       transform="matrix(1.3061223,0,0,1.3061223,-25.597659,-306.95624)">
      <path
         inkscape:connector-curvature="0"
         id="path2989"
         d="m 97.142858,978.43361 c -36.785715,-4.64286 -63.214286,30.71429 -63.214286,30.71429 l 26.785714,22.1429 31.071429,-15.3572 5.357143,-37.49999"
         style="fill:#ffffff;stroke:#1e1e1e;stroke-width:4;stroke-linecap:butt;stroke-linejoin:round;stroke-miterlimit:4;stroke-opacity:1;stroke-dasharray:none" />
      <path
         transform="translate(0,932.36218)"
         inkscape:connector-curvature="0"
         id="path3784"
         d="M 49.278195,86.620329 C 42.843952,81.306626 37.42899,76.821452 37.244945,76.653275 36.748937,76.200029 47.681524,65.53348 51.797493,62.454855 60.864641,55.672893 68.894143,51.69509 78.115286,49.417062 c 5.756778,-1.422178 14.696396,-2.171617 16.005039,-1.341758 0.378393,0.239952 -0.0021,3.571296 -1.964286,17.193744 l -2.43361,16.896128 -14.372804,7.058213 -14.372806,7.058215 -11.698624,-9.661275 z"
         style="fill:#ffffff;fill-opacity:0.99551571;fill-rule:evenodd;stroke:none" />
    </g>
    <path
       style="fill:#1db137;fill-opacity:0.99551571;stroke:none"
       d="m 73.570093,954.81878 c 0.874699,-0.12383 1.712139,-0.50038 2.385251,-1.07253 0.673111,-0.57215 1.179661,-1.33799 1.442787,-2.18131 0.291757,-0.93509 0.284401,-1.93288 0.404019,-2.9051 0.05981,-0.48611 0.152709,-0.97115 0.328134,-1.42843 0.175425,-0.45728 0.436716,-0.8876 0.799061,-1.21712 0.477136,-0.43391 1.102446,-0.67109 1.731221,-0.81455 0.628776,-0.14346 1.273983,-0.20259 1.905415,-0.33386 2.168577,-0.45084 4.139161,-1.78803 5.359252,-3.63664 -0.216817,0.95169 -0.408309,1.90915 -0.574205,2.87103 -0.254929,1.4781 -0.451702,2.97606 -0.93378,4.3964 -0.482078,1.42034 -1.282736,2.78224 -2.511454,3.64248 -0.518096,0.36273 -1.104953,0.62965 -1.722617,0.76561 -0.829587,0.18261 -1.689946,0.12744 -2.539063,0.15109 -0.849118,0.0236 -1.732651,0.14027 -2.437386,0.61451 -0.33911,0.2282 -0.622714,0.53041 -0.957009,0.76561 -0.76597,0.53891 -1.793399,0.68569 -2.679626,0.38281"
       id="path3937"
       inkscape:path-effect="#path-effect3959"
       inkscape:original-d="m 73.570093,954.81878 c 1.128346,-1.30021 3.124773,-1.84731 3.828038,-3.25384 0.823727,-1.64745 0.777393,-4.04301 1.531214,-5.55065 0.542856,-1.08571 2.453977,-0.75419 3.636636,-1.14841 2.264871,-0.75496 3.959453,-2.23684 5.359252,-3.63664 -0.389876,1.09385 -0.574205,1.78304 -0.574205,2.87103 0,4.12968 0.0602,6.28617 -3.445234,8.03888 -0.571411,0.2857 -1.036886,0.76561 -1.722617,0.76561 -0.468466,0 -4.976449,0.93543 -4.976449,0.7656 0,-0.0547 -0.551594,0.5629 -0.957009,0.76561 -0.911059,0.45553 -1.417517,1.01386 -2.679626,0.38281 z"
       inkscape:connector-curvature="0" />
    <path
       inkscape:connector-curvature="0"
       inkscape:original-d="m 73.194444,954.90641 c -0.322878,-1.29037 0.215624,-2.7964 -0.362929,-3.86486 -0.677644,-1.25146 -2.214381,-2.2838 -2.834525,-3.42906 -0.446592,-0.82475 0.610198,-1.88742 0.884823,-2.81065 0.525901,-1.76807 0.338988,-3.49734 0.07339,-5.00365 0.51956,0.7315 0.874046,1.15362 1.562667,1.63581 2.613743,1.83014 4.005318,2.74776 3.561125,5.74319 -0.07241,0.48828 0.02503,0.99556 -0.278857,1.42957 -0.207646,0.29648 -1.613394,3.56425 -1.720878,3.48899 -0.03468,-0.0243 0.111818,0.59858 0.06044,0.94502 -0.115445,0.7785 0.01348,1.34649 -0.945257,1.86564 z"
       inkscape:path-effect="#path-effect3956"
       id="path3941"
       d="m 73.194444,954.90641 c 0.30927,-0.60849 0.442072,-1.3054 0.378255,-1.98499 -0.06382,-0.67959 -0.324039,-1.33959 -0.741184,-1.87987 -0.462537,-0.59907 -1.097324,-1.03661 -1.659648,-1.54319 -0.281162,-0.25328 -0.546983,-0.52704 -0.75866,-0.84073 -0.211677,-0.31368 -0.36824,-0.66977 -0.416217,-1.04514 -0.06318,-0.49429 0.06383,-0.99517 0.251691,-1.45672 0.18786,-0.46154 0.436382,-0.89611 0.633132,-1.35393 0.675714,-1.57234 0.7027,-3.41217 0.07339,-5.00365 0.506259,0.559 1.027393,1.10453 1.562667,1.63581 0.82254,0.81641 1.683426,1.6048 2.368744,2.53938 0.685318,0.93458 1.192462,2.04489 1.192381,3.20381 -3.4e-5,0.48866 -0.09118,0.97839 -0.278857,1.42957 -0.252078,0.60599 -0.66828,1.12608 -1.029621,1.67398 -0.361342,0.54791 -0.67909,1.1588 -0.691257,1.81501 -0.0059,0.31577 0.05973,0.6292 0.06044,0.94502 0.0016,0.72363 -0.360809,1.43895 -0.945256,1.86564"
       style="fill:#1db137;fill-opacity:0.99551571;stroke:none" />
    <g
       id="g3949"
       transform="matrix(-0.73396035,0,0,0.73396035,88.308628,245.08901)">
      <path
         style="fill:#1db137;fill-opacity:0.99551571;stroke:none"
         d="m 73.570093,954.81878 c 0.874699,-0.12383 1.712139,-0.50038 2.385251,-1.07253 0.673111,-0.57215 1.179661,-1.33799 1.442787,-2.18131 0.291757,-0.93509 0.284401,-1.93288 0.404019,-2.9051 0.05981,-0.48611 0.152709,-0.97115 0.328134,-1.42843 0.175425,-0.45728 0.436716,-0.8876 0.799061,-1.21712 0.477136,-0.43391 1.102446,-0.67109 1.731221,-0.81455 0.628776,-0.14346 1.273983,-0.20259 1.905415,-0.33386 2.168577,-0.45084 4.139161,-1.78803 5.359252,-3.63664 -0.216817,0.95169 -0.408309,1.90915 -0.574205,2.87103 -0.254929,1.4781 -0.451702,2.97606 -0.93378,4.3964 -0.482078,1.42034 -1.282736,2.78224 -2.511454,3.64248 -0.518096,0.36273 -1.104953,0.62965 -1.722617,0.76561 -0.829587,0.18261 -1.689946,0.12744 -2.539063,0.15109 -0.849118,0.0236 -1.732651,0.14027 -2.437386,0.61451 -0.33911,0.2282 -0.622714,0.53041 -0.957009,0.76561 -0.76597,0.53891 -1.793399,0.68569 -2.679626,0.38281"
         id="path3951"
         inkscape:path-effect="#path-effect3939"
         inkscape:original-d="m 73.570093,954.81878 c 1.128346,-1.30021 3.124773,-1.84731 3.828038,-3.25384 0.823727,-1.64745 0.777393,-4.04301 1.531214,-5.55065 0.542856,-1.08571 2.453977,-0.75419 3.636636,-1.14841 2.264871,-0.75496 3.959453,-2.23684 5.359252,-3.63664 -0.389876,1.09385 -0.574205,1.78304 -0.574205,2.87103 0,4.12968 0.0602,6.28617 -3.445234,8.03888 -0.571411,0.2857 -1.036886,0.76561 -1.722617,0.76561 -0.468466,0 -4.976449,0.93543 -4.976449,0.7656 0,-0.0547 -0.551594,0.5629 -0.957009,0.76561 -0.911059,0.45553 -1.417517,1.01386 -2.679626,0.38281 z"
         inkscape:connector-curvature="0" />
      <path
         inkscape:connector-curvature="0"
         inkscape:original-d="m 73.194444,954.90641 c -0.322878,-1.29037 0.215624,-2.7964 -0.362929,-3.86486 -0.677644,-1.25146 -2.214381,-2.2838 -2.834525,-3.42906 -0.446592,-0.82475 0.610198,-1.88742 0.884823,-2.81065 0.525901,-1.76807 0.338988,-3.49734 0.07339,-5.00365 0.51956,0.7315 0.874046,1.15362 1.562667,1.63581 2.613743,1.83014 4.005318,2.74776 3.561125,5.74319 -0.07241,0.48828 0.02503,0.99556 -0.278857,1.42957 -0.207646,0.29648 -1.613394,3.56425 -1.720878,3.48899 -0.03468,-0.0243 0.111818,0.59858 0.06044,0.94502 -0.115445,0.7785 0.01348,1.34649 -0.945257,1.86564 z"
         inkscape:path-effect="#path-effect3943"
         id="path3953"
         d="m 73.194444,954.90641 c 0.30927,-0.60849 0.442072,-1.3054 0.378255,-1.98499 -0.06382,-0.67959 -0.324039,-1.33959 -0.741184,-1.87987 -0.462537,-0.59907 -1.097324,-1.03661 -1.659648,-1.54319 -0.281162,-0.25328 -0.546983,-0.52704 -0.75866,-0.84073 -0.211677,-0.31368 -0.36824,-0.66977 -0.416217,-1.04514 -0.06318,-0.49429 0.06383,-0.99517 0.251691,-1.45672 0.18786,-0.46154 0.436382,-0.89611 0.633132,-1.35393 0.675714,-1.57234 0.7027,-3.41217 0.07339,-5.00365 0.506259,0.559 1.027393,1.10453 1.562667,1.63581 0.82254,0.81641 1.683426,1.6048 2.368744,2.53938 0.685318,0.93458 1.192462,2.04489 1.192381,3.20381 -3.4e-5,0.48866 -0.09118,0.97839 -0.278857,1.42957 -0.252078,0.60599 -0.66828,1.12608 -1.029621,1.67398 -0.361342,0.54791 -0.67909,1.1588 -0.691257,1.81501 -0.0059,0.31577 0.05973,0.6292 0.06044,0.94502 0.0016,0.72363 -0.360809,1.43895 -0.945256,1.86564"
         style="fill:#1db137;fill-opacity:0.99551571;stroke:none" />
    </g>
    <path
       inkscape:connector-curvature="0"
       inkscape:original-d="m 24.440901,985.42672 c -1.154766,-0.22345 -2.160463,-1.21781 -3.232902,-1.15344 -1.25615,0.0754 -2.657725,0.92117 -3.807287,0.99017 -0.827825,0.0497 -1.284531,-1.19432 -1.921786,-1.75942 -1.220391,-1.08217 -2.676064,-1.5786 -3.982469,-1.92865 0.780434,-0.14266 1.251132,-0.26935 1.894881,-0.64104 2.443432,-1.41072 3.698819,-2.18301 5.933347,-0.70766 0.364234,0.24048 0.807185,0.35198 1.041441,0.75771 0.160011,0.2772 2.253466,2.6249 2.152983,2.68292 -0.03238,0.0191 0.521482,0.13408 0.779909,0.30472 0.580746,0.38342 1.084109,0.49237 1.141875,1.4547 z"
       inkscape:path-effect="#path-effect3963"
       id="path3961"
       d="m 24.440901,985.42672 c -0.372066,-0.47524 -0.88094,-0.8421 -1.449405,-1.04492 -0.568465,-0.20282 -1.194635,-0.24092 -1.783497,-0.10852 -0.652941,0.14681 -1.240804,0.49202 -1.856907,0.75336 -0.308051,0.13067 -0.626775,0.2414 -0.957265,0.29382 -0.33049,0.0524 -0.674364,0.0448 -0.993115,-0.057 -0.41973,-0.13408 -0.773675,-0.42305 -1.07335,-0.74607 -0.299676,-0.32303 -0.555063,-0.68459 -0.848436,-1.01335 -1.007551,-1.12909 -2.471896,-1.83825 -3.982469,-1.92865 0.637162,-0.19683 1.269087,-0.41061 1.894881,-0.64104 0.961643,-0.3541 1.915172,-0.74939 2.920239,-0.94936 1.005066,-0.19996 2.084389,-0.19146 3.013108,0.2417 0.391599,0.18264 0.750001,0.4387 1.041441,0.75771 0.391435,0.42847 0.652705,0.95637 0.956763,1.45069 0.304059,0.49433 0.674882,0.97725 1.19622,1.23223 0.250861,0.12269 0.526552,0.18727 0.779909,0.30472 0.580511,0.26912 1.018329,0.82687 1.141883,1.45469"
       style="fill:#1db137;fill-opacity:0.99551571;stroke:none" />
  </g>
</svg>
